<svg width="32" height="32" viewBox="0 0 32 32" fill="none" xmlns="http://www.w3.org/2000/svg">
<path d="M8.35245 22.2854L11.6735 21.5236L12.3311 23.8269C12.7388 25.2552 13.3206 26.2921 14.2174 27.1889L16.3463 29.3178C19.9226 32.8941 25.7416 32.8941 29.3178 29.3178C32.894 25.7416 32.8941 19.9225 29.3178 16.3462L27.1784 14.2068C26.2803 13.3087 25.2414 12.7264 23.8099 12.3189L21.5247 11.668L22.2853 8.35251C22.3568 8.04054 22.2629 7.71366 22.0366 7.48732L14.8216 0.272319C14.5785 0.0291898 14.221 -0.059902 13.8923 0.0407152C13.7441 0.0860719 13.6127 0.166574 13.507 0.272275C13.3782 0.40107 13.2876 0.56729 13.2516 0.752705L11.7857 8.31425C11.7269 8.61746 11.8226 8.93014 12.041 9.14855L13.1884 10.296L10.2986 13.1907L9.14871 12.0409C8.93029 11.8224 8.61762 11.7268 8.31441 11.7855L0.752699 13.2517C0.567242 13.2877 0.401111 13.3782 0.272273 13.5071C0.166573 13.6128 0.0860274 13.7443 0.0407149 13.8924C-0.0599017 14.2211 0.0291898 14.5786 0.272317 14.8217L7.48726 22.0367C7.7136 22.263 8.04043 22.3569 8.35245 22.2854ZM11.6057 14.5129L14.5104 11.6032L16.5612 12.1874L12.1898 16.5589L11.6057 14.5129ZM28.0031 28.0031C25.9175 30.0888 22.8752 30.6485 20.2757 29.683L29.6831 20.2756C30.6486 22.8751 30.0888 25.9174 28.0031 28.0031ZM28.0031 17.6609C28.2865 17.9443 28.5413 18.2457 28.7684 18.5609L18.561 28.7684C18.2457 28.5413 17.9445 28.2866 17.661 28.0031L15.532 25.8741C14.862 25.2041 14.4394 24.4392 14.1189 23.3165L12.7737 18.6043L18.6076 12.7703L23.3007 14.107C24.4263 14.4274 25.1927 14.8505 25.8637 15.5215L28.0031 17.6609ZM14.7439 2.82399L20.3581 8.43819L19.7342 11.158L15.4633 9.94148L13.7049 8.18314L14.7439 2.82399ZM2.82397 14.7439L8.18334 13.7048C8.18334 13.7048 9.89645 15.4105 9.93672 15.4395L11.1625 19.7332L8.43817 20.3582L2.82397 14.7439Z" fill="white"/>
</svg>
