<svg width="97" height="29" viewBox="0 0 97 29" fill="none" xmlns="http://www.w3.org/2000/svg">
<path d="M12.696 5.352C11.256 4.08 9.408 3.576 7.488 3.576C4.152 3.576 1.008 5.472 1.008 9.096C1.008 14.76 8.976 13.08 8.976 16.2C8.976 17.4 7.608 17.976 6.384 17.976C5.136 17.976 3.888 17.376 3.12 16.368L0.456 19.296C2.064 20.784 3.984 21.432 6.168 21.432C9.672 21.432 12.72 19.632 12.72 15.84C12.72 9.888 4.896 11.88 4.896 8.784C4.896 7.512 6.36 7.032 7.416 7.032C8.328 7.032 9.528 7.392 10.128 8.16L12.696 5.352ZM16.2532 21H19.8533V16.128C19.8533 13.8 20.1892 12.216 22.9253 12.216C23.4533 12.216 23.9573 12.312 24.4613 12.456V9.168C24.1253 9.072 23.6693 9.048 23.2613 9.048C21.6773 9.048 20.6693 9.792 19.9013 11.208H19.8533V9.336H16.2532V21ZM34.5467 21H37.8587V15.072C37.8587 11.184 36.7307 9.048 32.5307 9.048C30.6347 9.048 28.7147 9.672 27.3947 10.92L29.3147 12.888C30.0827 12.024 31.0667 11.496 32.2427 11.496C33.4907 11.496 34.5467 12.312 34.5467 13.584C31.5467 13.584 26.6507 13.656 26.6507 17.688C26.6507 20.04 28.6187 21.288 30.8027 21.288C32.2667 21.288 33.7067 20.784 34.4987 19.536H34.5467V21ZM34.5467 15.888V16.656C34.5467 18.096 33.2267 18.84 31.8107 18.84C31.0187 18.84 30.1067 18.432 30.1067 17.568C30.1067 15.984 32.5547 15.888 33.6587 15.888H34.5467Z" fill="white"/>
<path d="M55.7653 6.072C54.3253 4.224 51.9253 3.576 50.0293 3.576C44.7253 3.576 40.8613 7.056 40.8613 12.504C40.8613 17.952 44.7253 21.432 50.0293 21.432C52.3573 21.432 54.7573 20.496 56.1733 18.48L53.0533 16.152C52.2853 17.304 51.0613 17.976 49.5493 17.976C46.8373 17.976 44.7493 15.672 44.7493 12.504C44.7493 9.336 46.8373 7.032 49.6693 7.032C51.0613 7.032 52.1413 7.536 52.8853 8.424L55.7653 6.072ZM58.947 2.856V21H62.547V15.192C62.547 13.68 62.835 12.216 64.707 12.216C66.555 12.216 66.579 13.944 66.579 15.288V21H70.179V14.568C70.179 11.448 69.507 9.048 65.859 9.048C64.107 9.048 62.931 10.008 62.595 10.92H62.547V2.856H58.947ZM81.2483 21H84.5603V15.072C84.5603 11.184 83.4323 9.048 79.2323 9.048C77.3363 9.048 75.4163 9.672 74.0963 10.92L76.0163 12.888C76.7843 12.024 77.7683 11.496 78.9443 11.496C80.1923 11.496 81.2483 12.312 81.2483 13.584C78.2483 13.584 73.3523 13.656 73.3523 17.688C73.3523 20.04 75.3203 21.288 77.5043 21.288C78.9683 21.288 80.4083 20.784 81.2003 19.536H81.2483V21ZM81.2483 15.888V16.656C81.2483 18.096 79.9283 18.84 78.5123 18.84C77.7203 18.84 76.8083 18.432 76.8083 17.568C76.8083 15.984 79.2563 15.888 80.3603 15.888H81.2483ZM95.9629 9.336H92.7949V5.88H89.1949V9.336H86.8909V12.216H89.1949V17.76C89.1949 20.304 91.0429 21.288 93.4429 21.288C94.2829 21.288 95.1709 21.216 95.9629 20.928V17.928C95.6509 18.216 94.8829 18.264 94.4989 18.264C92.9389 18.264 92.7949 17.352 92.7949 16.104V12.216H95.9629V9.336Z" fill="#F54B2A"/>
</svg>
