<svg width="16" height="16" viewBox="0 0 16 16" fill="none" xmlns="http://www.w3.org/2000/svg">
<g clip-path="url(#clip0)">
<path d="M8 2C4.30342 2 1.16717 4.50678 0 8.00002C1.16717 11.4933 4.30342 14 8 14C11.6966 14 14.8328 11.4932 16 8.00002C14.8328 4.50678 11.6966 2 8 2ZM8 12C5.79084 12 4 10.2091 4 8.00002C4 5.79086 5.79084 4.00002 8 4.00002C10.2092 4.00002 12 5.79086 12 8.00002C12 10.2091 10.2092 12 8 12Z" fill="#A79D9E"/>
<path d="M9.4142 6.58554C10.1952 7.36658 10.1952 8.63291 9.4142 9.41395C8.63315 10.195 7.36683 10.195 6.58578 9.41395C5.80474 8.63291 5.80474 7.36658 6.58578 6.58554C7.36683 5.8045 8.63315 5.8045 9.4142 6.58554Z" fill="#A79D9E"/>
</g>
<defs>
<clipPath id="clip0">
<rect width="16" height="16" fill="white"/>
</clipPath>
</defs>
</svg>
